<?xml version="1.0"?>
<svg xmlns="http://www.w3.org/2000/svg" height="512px" viewBox="0 0 512 512" width="512px" class=""><g><path d="m256 216.945312c5.523438 0 10-4.476562 10-10v-28.027343c0-5.523438-4.476562-10-10-10s-10 4.476562-10 10v28.027343c0 5.523438 4.476562 10 10 10zm0 0" data-original="#000000" class="active-path" data-old_color="#000000" fill="#FF3709"/><path d="m374.375 315.140625h41.15625c53.191406 0 96.46875-43.25 96.46875-96.414063 0-52.203124-41.722656-94.84375-93.589844-96.375-14.269531-55.015624-56.144531-98.820312-110.992187-115.398437-5.285157-1.59375-10.867188 1.394531-12.464844 6.679687-1.597656 5.289063 1.390625 10.867188 6.679687 12.464844 46.972657 14.199219 83.097657 51.15625 96.457032 97.800782-17.839844 3.261718-34.457032 11.488281-47.988282 23.976562-4.058593 3.746094-4.3125 10.070312-.566406 14.128906 1.972656 2.136719 4.65625 3.21875 7.351563 3.21875 2.425781 0 4.855469-.875 6.777343-2.652344 13.070313-12.058593 29.777344-19.105468 47.4375-20.121093.515626-.027344.996094-.050781 1.464844-.070313.988282-.039062 1.972656-.070312 2.964844-.070312 42.164062 0 76.46875 34.28125 76.46875 76.414062 0 42.136719-34.304688 76.417969-76.46875 76.417969h-41.15625v-39.039063c0-5.523437-4.476562-10-10-10s-10 4.476563-10 10v39.039063h-88.375v-39.039063c0-5.523437-4.476562-10-10-10s-10 4.476563-10 10v39.039063h-88.375v-39.039063c0-5.523437-4.476562-10-10-10s-10 4.476563-10 10v39.039063h-65.660156c-28.652344 0-51.964844-23.292969-51.964844-51.925781 0-21.242188 12.734375-40.128906 32.445312-48.121094 4.535157-1.839844 7.074219-6.6875 6-11.460938-.847656-3.777343-1.277343-7.621093-1.277343-11.425781 0-28.632812 23.308593-51.925781 51.964843-51.925781 1.765626 0 3.628907.105469 5.539063.304688 4.558594.480468 8.855469-2.195313 10.4375-6.496094 15.480469-42.125 50.34375-75.019532 93.261719-87.992188 5.285156-1.597656 8.277344-7.175781 6.679687-12.464844-1.597656-5.285156-7.179687-8.277343-12.464843-6.679687-46.523438 14.0625-84.738282 48.667969-103.527344 93.328125-39.648438.042969-71.890625 32.292969-71.890625 71.925781 0 2.597657.144531 5.207031.429687 7.808594-23.078125 12.488281-37.597656 36.503906-37.597656 63.199219 0 39.660156 32.28125 71.925781 71.964844 71.925781h65.660156v68.414063l-34.789062 35.0625c-5.558594-3.183594-11.984376-5.015626-18.835938-5.015626-20.953125 0-38 17.046876-38 38 0 20.953126 17.046875 38 38 38s38-17.046874 38-38c0-6.855468-1.835938-13.285156-5.023438-18.84375l37.746094-38.039062c1.859375-1.875 2.902344-4.40625 2.902344-7.042969v-72.535156h88.375v130.339844c-13.882812 4.28125-24 17.230469-24 32.496093 0 18.75 15.253906 34 34 34s34-15.25 34-34c0-15.265624-10.117188-28.214843-24-32.496093v-130.339844h88.375v72.535156c0 2.636719 1.042969 5.167969 2.902344 7.042969l37.726562 38.023438c-3.257812 5.679687-5.003906 12.132812-5.003906 18.859374 0 10.152344 3.953125 19.695313 11.128906 26.871094 7.175782 7.175782 16.71875 11.128906 26.871094 11.128906 10.148438 0 19.691406-3.953124 26.867188-11.128906 7.179687-7.175781 11.132812-16.71875 11.132812-26.871094 0-10.148437-3.953125-19.691406-11.132812-26.871093-7.175782-7.175781-16.71875-11.128907-26.867188-11.128907-6.722656 0-13.175781 1.742188-18.851562 5l-34.773438-35.046874zm-290.375 154.460937c-9.925781 0-18-8.074218-18-18 0-9.921874 8.074219-18 18-18s18 8.078126 18 18c0 9.925782-8.074219 18-18 18zm172 22.375c-7.71875 0-14-6.277343-14-14 0-7.71875 6.28125-14 14-14s14 6.28125 14 14c0 7.722657-6.28125 14-14 14zm184.726562-53.101562c3.402344 3.398438 5.273438 7.921875 5.273438 12.726562 0 4.808594-1.871094 9.328126-5.273438 12.730469-3.398437 3.398438-7.917968 5.269531-12.726562 5.269531s-9.328125-1.871093-12.726562-5.269531c-3.402344-3.398437-5.273438-7.921875-5.273438-12.730469 0-4.804687 1.871094-9.328124 5.273438-12.726562 3.398437-3.398438 7.917968-5.273438 12.726562-5.273438s9.328125 1.875 12.726562 5.273438zm0 0" data-original="#000000" class="active-path" data-old_color="#000000" fill="#FF3709"/><path d="m260 20.023438c5.523438 0 10-4.476563 10-10v-.046876c0-5.523437-4.476562-9.976562-10-9.976562s-10 4.5-10 10.023438c0 5.519531 4.476562 10 10 10zm0 0" data-original="#000000" class="active-path" data-old_color="#000000" fill="#FF3709"/></g> </svg>
