<?xml version="1.0"?>
<svg xmlns="http://www.w3.org/2000/svg" height="512px" viewBox="0 0 496 496" width="512px"><g><path d="m272 416h-256v-352h256v47.519531h16v-71.519531c0-22.054688-17.945312-40-40-40h-208c-22.054688 0-40 17.945312-40 40v416c0 22.054688 17.945312 40 40 40h208c22.054688 0 40-17.945312 40-40v-144h-16zm-232-400h208c13.230469 0 24 10.769531 24 24v8h-256v-8c0-13.230469 10.769531-24 24-24zm208 464h-208c-13.230469 0-24-10.769531-24-24v-24h256v24c0 13.230469-10.769531 24-24 24zm0 0" data-original="#000000" class="active-path" data-old_color="#000000" fill="#1AAE6F"/><path d="m120 448h48v16h-48zm0 0" data-original="#000000" class="active-path" data-old_color="#000000" fill="#1AAE6F"/><path d="m408 112c-4.414062 0-8-3.585938-8-8h-16c0 10.414062 6.710938 19.214844 16 22.527344v17.472656h16v-17.472656c9.289062-3.3125 16-12.113282 16-22.527344 0-13.230469-10.769531-24-24-24-4.414062 0-8-3.585938-8-8s3.585938-8 8-8 8 3.585938 8 8h16c0-10.414062-6.710938-19.214844-16-22.527344v-17.472656h-16v17.472656c-9.289062 3.3125-16 12.113282-16 22.527344 0 13.230469 10.769531 24 24 24 4.414062 0 8 3.585938 8 8s-3.585938 8-8 8zm0 0" data-original="#000000" class="active-path" data-old_color="#000000" fill="#1AAE6F"/><path d="m408 240c-33.519531 0-62.703125 18.847656-77.558594 46.496094l-83.128906-35.167969c5.695312-13.519531 8.6875-28.175781 8.6875-43.328125 0-15.023438-3.128906-29.695312-8.824219-43.273438l83.265625-35.222656c14.855469 27.648438 44.039063 46.496094 77.558594 46.496094 48.519531 0 88-39.480469 88-88s-39.480469-88-88-88-88 39.480469-88 88c0 9.335938 1.488281 18.320312 4.191406 26.769531l-84.238281 35.636719c-5.746094-9.574219-12.875-18.375-21.359375-25.957031-23.746094-21.210938-55.648438-31.289063-87.601562-27.722657-50.160157 5.671876-91.367188 46.066407-97.984376 96.058594-4.71875 35.640625 7.230469 70.367188 32.792969 95.277344 2.09375 2.042969 3.941407 4.289062 5.632813 6.65625-4.5625 4.371094-7.433594 10.480469-7.433594 17.28125 0 11.105469 7.617188 20.382812 17.871094 23.113281 6.890625 28.253907 32.585937 48.886719 62.128906 48.886719s55.238281-20.632812 62.128906-48.886719c10.253906-2.730469 17.871094-12.007812 17.871094-23.113281 0-6.816406-2.886719-12.945312-7.464844-17.3125 1.640625-2.289062 3.441406-4.457031 5.464844-6.421875 7.054688-6.851563 12.976562-14.511719 17.921875-22.679687l84.269531 35.652343c-2.703125 8.441407-4.191406 17.425781-4.191406 26.761719 0 34.113281 19.550781 63.6875 48 78.289062v86.65625l40-20 40 20v-86.65625c28.449219-14.601562 48-44.167968 48-78.289062 0-48.519531-39.480469-88-88-88zm0-224c39.703125 0 72 32.296875 72 72s-32.296875 72-72 72-72-32.296875-72-72 32.296875-72 72-72zm-264 352c-20.480469 0-38.449219-13.257812-45.128906-32h90.257812c-6.679687 18.742188-24.648437 32-45.128906 32zm56-48h-112c-4.414062 0-8-3.585938-8-8s3.585938-8 8-8h112c4.414062 0 8 3.585938 8 8s-3.585938 8-8 8zm-56-96c-8.824219 0-16-7.175781-16-16s7.175781-16 16-16 16 7.175781 16 16-7.175781 16-16 16zm66.847656 52.785156c-3.496094 3.398438-6.414062 7.292969-9.039062 11.398438-.609375-.046875-1.191406-.183594-1.808594-.183594h-48v-49.136719c13.769531-3.574219 24-15.992187 24-30.863281 0-17.648438-14.351562-32-32-32s-32 14.351562-32 32c0 14.871094 10.230469 27.289062 24 30.863281v49.136719h-48c-.632812 0-1.230469.136719-1.855469.183594-2.664062-4.160156-5.625-8.113282-9.175781-11.574219-21.90625-21.351563-32.152344-51.152344-28.105469-81.738281 5.671875-42.800782 40.960938-77.390625 83.921875-82.230469 27.824219-3.191406 54.488282 5.296875 75.144532 23.742187 6.703124 5.992188 12.359374 12.898438 17.078124 20.351563l-28.121093 11.898437 6.234375 14.734376 29.335937-12.40625c4.863281 11.625 7.542969 24.183593 7.542969 37.039062 0 12.96875-2.558594 25.511719-7.433594 37.097656l-29.445312-12.457031-6.234375 14.734375 28.144531 11.90625c-4.007812 6.261719-8.6875 12.175781-14.183594 17.503906zm221.152344 190.269532-24-12-24 12v-54.460938c7.640625 2.167969 15.671875 3.40625 24 3.40625s16.359375-1.238281 24-3.40625zm-24-67.054688c-39.703125 0-72-32.296875-72-72s32.296875-72 72-72 72 32.296875 72 72-32.296875 72-72 72zm0 0" data-original="#000000" class="active-path" data-old_color="#000000" fill="#1AAE6F"/><path d="m408 288c-22.054688 0-40 17.945312-40 40s17.945312 40 40 40 40-17.945312 40-40-17.945312-40-40-40zm0 64c-13.230469 0-24-10.769531-24-24s10.769531-24 24-24 24 10.769531 24 24-10.769531 24-24 24zm0 0" data-original="#000000" class="active-path" data-old_color="#000000" fill="#1AAE6F"/></g> </svg>
